<?xml version="1.0" encoding="utf-8"?>
<!-- Svg Vector Icons : http://www.onlinewebfonts.com/icon -->
<!DOCTYPE svg PUBLIC "-//W3C//DTD SVG 1.1//EN" "http://www.w3.org/Graphics/SVG/1.1/DTD/svg11.dtd">
<svg version="1.1" xmlns="http://www.w3.org/2000/svg" xmlns:xlink="http://www.w3.org/1999/xlink" x="0px" y="0px" viewBox="0 0 1000 1000" enable-background="new 0 0 1000 1000" xml:space="preserve">
<metadata> Svg Vector Icons : http://www.onlinewebfonts.com/icon </metadata>
<g><g transform="translate(0.000000,512.000000) scale(0.100000,-0.100000)"><path d="M2472,2684.9C-53.7,157.3,78.4,298.9,112.8,121c11.5-59.3,55.5-114.8,254.5-317.6C501.2-332.5,633.3-455,662-470.3c65.1-34.5,189.4-34.5,269.8,0c36.4,15.3,857.2,824.7,1974.7,1944c1052.4,1054.3,1936.4,1928.7,1965.1,1944c28.7,15.3,86.1,26.8,130.1,26.8c44,0,101.4-11.5,130.1-26.8c28.7-15.3,912.7-889.7,1965.1-1944C8149.2,419.5,9033.2-455,9061.9-470.3c67-34.5,212.4-34.5,279.4,0C9370-455,9502-332.5,9634-196.7c212.4,214.3,244.9,254.5,256.4,325.3c28.7,174.1,141.6,51.7-2361.2,2556.3L5202.5,5013.6h-200.9h-200.9L2472,2684.9z"/><path d="M4898.3,2765.3c-61.2-21-459.2-409.5-1938.3-1888.6L1098.2-985v-1808.2v-1810.1l42.1-84.2l44-86.1h1213.1h1213.1l45.9,84.2l44,84.2v1052.4v1052.4l47.8,80.4c89.9,156.9,57.4,153.1,1195.9,158.8c1039,5.7,1151.9,0,1238-70.8c22.9-19.1,59.3-63.1,80.4-99.5c40.2-63.2,40.2-86.1,40.2-1117.5v-1054.3l44-84.2l42.1-86.1h1215h1215l44,86.1l42.1,84.2v1810.1V-985L7035.6,884.4C4953.8,2964.3,5097.3,2836.1,4898.3,2765.3z M4687.8,1133.2c59.3-30.6,156.9-147.3,191.3-229.6c19.1-40.2,32.5-126.3,34.4-204.7c1.9-109.1-5.7-149.2-44-214.3c-59.3-105.2-178-170.3-273.6-151.2c-220,40.2-388.4,354-323.4,600.8c28.7,101.4,120.6,208.6,200.9,229.6C4536.6,1181,4622.7,1169.5,4687.8,1133.2z M5635,1127.4c195.2-137.8,177.9-510.9-30.6-704.1c-235.3-216.2-510.9-36.4-482.2,313.8c11.5,149.2,89.9,300.4,193.2,377C5411.1,1182.9,5548.8,1188.7,5635,1127.4z M4098.5,446.2c302.3-243,212.4-803.6-122.5-765.4c-227.7,24.9-403.7,346.3-332.9,606.6c13.4,53.6,49.8,112.9,97.6,158.8c72.7,72.7,78.5,74.6,179.9,67C4000.9,505.6,4043,490.2,4098.5,446.2z M6258.7,478.8c177.9-107.2,197.1-440.1,38.3-654.4c-57.4-78.4-183.7-149.2-266-149.2c-82.3,0-181.8,65.1-231.5,149.2c-19.1,32.5-40.2,111-45.9,174.1C5723,335.3,6023.4,622.3,6258.7,478.8z M5170,73.1c116.7-34.4,191.3-124.4,313.8-367.4c63.1-128.2,139.7-262.1,168.4-298.5c30.6-38.3,133.9-111,239.2-172.2c233.5-132,283.2-191.3,292.8-355.9c9.6-149.3-36.4-256.4-156.9-367.4c-145.4-133.9-287-147.3-639.1-67c-277.4,63.1-465,65-702.2,7.6c-93.8-24.9-239.2-47.8-319.5-53.6c-133.9-9.6-156.9-5.7-252.6,40.2c-195.2,95.7-311.9,321.4-260.2,507.1c28.7,111,111,195.2,271.7,279.4c214.3,112.9,283.2,189.4,413.3,455.4C4687.8-13,4758.6,61.6,4927,94.2C5013.1,111.4,5060.9,105.6,5170,73.1z"/></g></g>
</svg>